PathFileType	4	(X/Y/Z)	/Users/itak/Documents/Research/Walk-IL/dataset/trc/00309_00010.trc
DataRate	CameraRate	NumFrames	NumMarkers	Units	OrigDataRate	OrigDataStartFrame	OrigNumFrames
100.000000	100.000000	4	53	mm	100.000000	406	542
Frame#	Time	RPSI			LPSI			L3			STRN			T10			C7			CLAV			RBAK			LBAK			LSHO			LUPA			LAEL			LAOL			LWTS			LWPS			LFRA			LIFD			LHPS			LHTS			RSHO			RUPA			RAEL			RAOL			RWTS			RWPS			RFRA			RIFD			RHTS			RHPS			RBHD			LFHD			RFHD			LBHD			LHIP			RHIP			RASI			LASI			LKNE			LTHI			LANK			LTIP			LTOE			LMT1			LMT5			LHEE			RKNE			RTHI			RANK			RTIP			RTOE			RMT1			RMT5			RHEE			
		X1	Y1	Z1	X2	Y2	Z2	X3	Y3	Z3	X4	Y4	Z4	X5	Y5	Z5	X6	Y6	Z6	X7	Y7	Z7	X8	Y8	Z8	X9	Y9	Z9	X10	Y10	Z10	X11	Y11	Z11	X12	Y12	Z12	X13	Y13	Z13	X14	Y14	Z14	X15	Y15	Z15	X16	Y16	Z16	X17	Y17	Z17	X18	Y18	Z18	X19	Y19	Z19	X20	Y20	Z20	X21	Y21	Z21	X22	Y22	Z22	X23	Y23	Z23	X24	Y24	Z24	X25	Y25	Z25	X26	Y26	Z26	X27	Y27	Z27	X28	Y28	Z28	X29	Y29	Z29	X30	Y30	Z30	X31	Y31	Z31	X32	Y32	Z32	X33	Y33	Z33	X34	Y34	Z34	X35	Y35	Z35	X36	Y36	Z36	X37	Y37	Z37	X38	Y38	Z38	X39	Y39	Z39	X40	Y40	Z40	X41	Y41	Z41	X42	Y42	Z42	X43	Y43	Z43	X44	Y44	Z44	X45	Y45	Z45	X46	Y46	Z46	X47	Y47	Z47	X48	Y48	Z48	X49	Y49	Z49	X50	Y50	Z50	X51	Y51	Z51	X52	Y52	Z52	X53	Y53	Z53	

407	4.06	115.4528503417969	976.698974609375	580.085693359375	290.6689758300781	968.9834594726562	584.8825073242188	193.0112152099609	1039.155883789062	590.5374145507812	223.1117553710938	1234.4423828125	816.37841796875	183.9568786621094	1145.3349609375	562.8742065429688	213.7640686035156	1392.957641601562	578.9071044921875	225.3725891113281	1327.511108398438	743.1039428710938	124.9403381347656	1257.2919921875	548.3831176757812	310.8794860839844	1346.152465820312	553.6417846679688	378.30908203125	1359.245483398438	632.0481567382812	438.1356811523438	1240.978881835938	588.2315673828125	449.0955505371094	1040.545532226562	579.1882934570312	369.7811889648438	1026.218139648438	546.7603759765625	435.748291015625	808.3626098632812	648.0363159179688	480.0972290039062	803.4803466796875	592.14697265625	464.4703979492188	935.5782470703125	579.0397338867188	433.0640563964844	626.1475830078125	621.3969116210938	477.2618103027344	715.4920654296875	584.2623291015625	459.7165832519531	708.638916015625	647.391357421875	63.96918487548828	1385.919677734375	665.6679077148438	-4.287242412567139	1327.697631835938	675.0685424804688	-50.14469146728516	1061.900634765625	719.9210205078125	37.52898025512695	1046.312377929688	678.778076171875	46.86292266845703	873.8245239257812	855.5643920898438	-34.74352645874023	853.98046875	835.9503173828125	-50.55485534667969	1001.041137695312	762.1168212890625	72.03969573974609	697.4874877929688	907.26513671875	51.61235046386719	770.1558227539062	916.66259765625	-11.47716426849365	752.6842041015625	884.6985473632812	163.2691040039062	1550.602172851562	581.6077880859375	275.463623046875	1614.4345703125	752.1590576171875	182.4685211181641	1611.335815429688	745.7833862304688	309.3700256347656	1545.239624023438	593.5145263671875	386.5475769042969	930.3722534179688	662.7781372070312	7.61307954788208	924.3020629882812	675.839111328125	74.96512603759766	932.5966796875	797.5805053710938	328.7138977050781	945.603515625	796.2515869140625	351.034423828125	496.1379699707031	871.6716918945312	378.4689025878906	627.99609375	818.0724487304688	353.0548706054688	45.59127807617188	867.8651733398438	361.0465393066406	263.2107238769531	879.1882934570312	253.2245025634766	39.11635971069336	1060.643920898438	228.6266784667969	30.73222732543945	982.6323852539062	340.4263305664062	40.56641387939453	988.8699951171875	303.1393432617188	39.76007080078125	811.7838134765625	46.25896072387695	459.8648376464844	619.4666748046875	18.20523071289062	708.2448120117188	705.6707763671875	38.15971374511719	107.6580047607422	331.0940246582031	56.38941955566406	343.0063171386719	566.3956298828125	169.695068359375	40.09350967407227	446.0151672363281	178.2802429199219	53.72843551635742	387.5875244140625	63.16361236572266	42.15097808837891	413.9941711425781	61.7335319519043	144.4176635742188	273.2130432128906	
408	4.07	118.7511596679688	977.4036254882812	588.6920166015625	293.9091186523438	970.80615234375	594.8395385742188	195.7133331298828	1040.999877929688	599.4901733398438	225.0035705566406	1236.312133789062	825.5506591796875	186.5422973632812	1147.15478515625	571.8865356445312	216.6661071777344	1394.416381835938	587.7789916992188	227.6775817871094	1329.319946289062	752.1666259765625	127.566047668457	1259.204833984375	557.398681640625	313.8011474609375	1347.422607421875	562.9703979492188	380.9109497070312	1360.55859375	641.5529174804688	440.9745483398438	1242.115844726562	598.5942993164062	452.1272277832031	1041.634521484375	590.8534545898438	372.8945922851562	1026.997802734375	558.0787963867188	439.0110778808594	810.3125	662.4100341796875	483.4402770996094	804.7442016601562	606.6397094726562	467.5645446777344	936.6300048828125	591.8382568359375	436.8160400390625	627.7333374023438	638.3038330078125	480.7491149902344	716.6188354492188	599.9589233398438	463.1815185546875	710.62158203125	663.16552734375	66.76913452148438	1388.303344726562	674.3651123046875	-1.79410445690155	1330.51806640625	684.1273193359375	-48.21620941162109	1064.807983398438	728.9168701171875	41.28264236450195	1049.021240234375	688.0173950195312	46.04610061645508	871.6273193359375	859.5103759765625	-35.95138168334961	854.1838989257812	839.7425537109375	-49.06192779541016	1003.316528320312	769.8572387695312	67.54570007324219	692.9302368164062	904.6710815429688	48.8828010559082	765.7426147460938	916.8485107421875	-14.69433498382568	750.7024536132812	884.8961181640625	166.3144226074219	1551.693115234375	589.1797485351562	277.9109191894531	1616.568603515625	759.75390625	184.97900390625	1613.386108398438	753.0857543945312	312.4313659667969	1546.439819335938	601.6301879882812	389.4722595214844	933.0364990234375	673.6905517578125	10.50562286376953	924.840087890625	683.7205200195312	76.73829650878906	934.0833129882812	805.8218994140625	330.2872009277344	947.9476318359375	806.519775390625	352.4939575195312	496.0569152832031	877.1744995117188	380.2854309082031	628.885986328125	825.8427734375	353.0305786132812	45.72591781616211	868.05517578125	361.5768432617188	262.9508361816406	881.885986328125	252.8345947265625	38.55068969726562	1060.911499023438	228.3572998046875	30.53455352783203	982.7032470703125	340.2283325195312	40.44483947753906	988.99365234375	303.0875854492188	40.08089447021484	811.9776611328125	45.87351989746094	460.5133056640625	629.938232421875	19.79814910888672	709.2356567382812	714.4564819335938	38.33950042724609	112.4535598754883	335.9779052734375	55.08279800415039	344.3843994140625	575.3983764648438	169.5143585205078	40.16096878051758	446.8012390136719	178.1968841552734	55.91960906982422	390.0172424316406	63.02854537963867	42.85483169555664	416.0116577148438	62.62445831298828	151.6052093505859	280.1063537597656	
409	4.08	122.176643371582	977.9586181640625	596.884765625	297.2483520507812	972.5213012695312	604.6412353515625	198.5500030517578	1042.803100585938	608.2045288085938	226.6887054443359	1238.011108398438	834.587890625	189.2465362548828	1148.915649414062	580.6939086914062	219.5780487060547	1395.815185546875	596.5529174804688	229.8284606933594	1330.979370117188	761.1279907226562	130.2759704589844	1261.017700195312	566.2105102539062	316.7645263671875	1348.66015625	572.2918090820312	383.4737854003906	1361.814697265625	651.1317138671875	443.8716125488281	1243.201171875	609.091552734375	455.2015380859375	1042.655029296875	602.665771484375	376.1037902832031	1027.745971679688	569.4567260742188	442.1683044433594	812.2505493164062	676.9551391601562	486.7457580566406	805.970703125	621.3792114257812	470.6759033203125	937.6317749023438	604.8309936523438	440.4920043945312	629.3408203125	655.480224609375	484.2464904785156	717.7393798828125	615.9489135742188	466.5492553710938	712.6282958984375	679.193603515625	69.50517272949219	1390.520751953125	682.8511962890625	0.6344225406646729	1333.168579101562	692.9397583007812	-46.52838134765625	1067.603637695312	737.7732543945312	44.83634948730469	1051.609985351562	697.0199584960938	45.03012084960938	869.5750732421875	863.2826538085938	-37.40361022949219	854.6063232421875	843.6202392578125	-47.76002883911133	1005.59375	777.5313110351562	62.75191879272461	688.7675170898438	901.7006225585938	45.9544677734375	761.6553955078125	916.7803344726562	-18.13870048522949	749.0799560546875	885.1140747070312	169.2984466552734	1552.721801757812	596.765380859375	280.2730407714844	1618.5439453125	767.4051513671875	187.4024963378906	1615.291870117188	760.43017578125	315.4228210449219	1547.556762695312	609.777099609375	392.3771362304688	935.5526123046875	684.5523071289062	13.43350410461426	925.2876586914062	691.0994262695312	78.34308624267578	935.5050659179688	813.694580078125	331.6723022460938	950.1031494140625	816.63134765625	353.9491882324219	495.8352966308594	882.10546875	381.9985961914062	629.5440063476562	833.044677734375	352.9534301757812	45.85009765625	868.1796875	362.1234436035156	262.6258544921875	884.09326171875	252.4691162109375	38.14529418945312	1061.0966796875	228.1137084960938	30.36352157592773	982.7642211914062	340.0442199707031	40.37492370605469	989.07373046875	302.9771728515625	40.3680305480957	812.12451171875	45.17388153076172	461.1053161621094	640.5867309570312	21.21039199829102	710.2265625	722.9273681640625	38.39379501342773	117.4208908081055	341.2046508789062	53.58684158325195	345.7181091308594	584.7196655273438	169.3642578125	40.16452026367188	447.8380737304688	178.0700073242188	58.36265182495117	392.7643737792969	62.84155654907227	43.8053092956543	418.1933288574219	63.43075561523438	158.8068695068359	287.502685546875	
410	4.09	125.6751251220703	978.3670043945312	604.677734375	300.630615234375	974.1311645507812	614.2537231445312	201.4913940429688	1044.520751953125	616.6919555664062	228.1550598144531	1239.511474609375	843.4664306640625	192.0683746337891	1150.586181640625	589.2965087890625	222.5125427246094	1397.140502929688	605.212890625	231.8184051513672	1332.471069335938	769.9718627929688	133.0784149169922	1262.697387695312	574.7962646484375	319.7781677246094	1349.845825195312	581.5924682617188	385.999267578125	1362.995483398438	660.7766723632812	446.8262939453125	1244.212036132812	619.7252807617188	458.324951171875	1043.58447265625	614.6273803710938	379.4347229003906	1028.441528320312	580.8823852539062	445.2021484375	814.1510009765625	691.6511840820312	490.0054321289062	807.1430053710938	636.3525390625	473.8103942871094	938.5643920898438	618.01611328125	444.0841674804688	630.9541625976562	672.8956298828125	487.7438049316406	718.8402709960938	632.212646484375	469.8126220703125	714.6404418945312	695.4527587890625	72.17577362060547	1392.542846679688	691.0913696289062	3.004363298416138	1335.604614257812	701.4453735351562	-45.0395393371582	1070.23046875	746.37353515625	48.00768661499023	1054.057495117188	705.616455078125	43.85090637207031	867.6729736328125	866.8878173828125	-39.06113815307617	855.2198486328125	847.5806884765625	-46.64067459106445	1007.815185546875	785.0491333007812	57.68999481201172	685.0399169921875	898.517578125	42.83334732055664	757.938232421875	916.5557861328125	-21.77811431884766	747.8328857421875	885.4386596679688	172.2146453857422	1553.691162109375	604.3667602539062	282.5528259277344	1620.346557617188	775.1154174804688	189.7348785400391	1617.045043945312	767.8228759765625	318.3313293457031	1548.590576171875	617.9507446289062	395.2225341796875	937.8959350585938	695.2890014648438	16.37691688537598	925.6000366210938	698.0064086914062	79.78710174560547	936.79150390625	821.2103881835938	332.89208984375	952.03759765625	826.5430297851562	355.396728515625	495.5411071777344	886.5890502929688	383.615478515625	630.0536499023438	839.7704467773438	352.8594970703125	45.95895385742188	868.2685546875	362.7022094726562	262.2847290039062	885.955810546875	252.1502532958984	37.85311126708984	1061.220336914062	227.9100494384766	30.22604370117188	982.8157348632812	339.8929138183594	40.33724975585938	989.12353515625	302.8584289550781	40.62398910522461	812.2356567382812	44.23962783813477	461.6180419921875	651.46728515625	22.45708656311035	711.1878662109375	731.0875854492188	38.36554336547852	122.6020584106445	346.8055114746094	51.95486831665039	347.002685546875	594.385986328125	169.2393341064453	40.06578063964844	449.281005859375	177.9262237548828	61.09374618530273	395.9595336914062	62.62004852294922	45.07488250732422	420.5595703125	64.19364166259766	166.0181732177734	295.3941345214844	
